<?xml version="1.0" encoding="UTF-8"?> <svg xmlns="http://www.w3.org/2000/svg" width="159" height="57" viewBox="0 0 159 57" fill="none"><path d="M147.934 50.8269H148.667L148.71 51.5813C148.88 51.3192 149.103 51.1174 149.379 50.9757C149.655 50.8269 149.978 50.7525 150.346 50.7525C150.75 50.7525 151.104 50.8411 151.409 51.0182C151.713 51.1882 151.951 51.4468 152.121 51.7939C152.291 52.1339 152.376 52.5624 152.376 53.0796V56.1398H151.579V53.1752C151.579 52.6227 151.458 52.2047 151.217 51.9214C150.984 51.6309 150.644 51.4857 150.197 51.4857C149.737 51.4857 149.376 51.638 149.114 51.9426C148.859 52.2472 148.731 52.697 148.731 53.2921V56.1398H147.934V50.8269Z" fill="#021233"></path><path d="M143.962 56.2141C143.459 56.2141 143.009 56.1043 142.612 55.8847C142.216 55.6651 141.904 55.3535 141.677 54.9497C141.45 54.5388 141.337 54.0536 141.337 53.494C141.337 52.9273 141.45 52.4385 141.677 52.0276C141.911 51.6168 142.226 51.3015 142.623 51.0819C143.027 50.8623 143.48 50.7525 143.983 50.7525C144.486 50.7525 144.936 50.8623 145.332 51.0819C145.736 51.3015 146.051 51.6168 146.278 52.0276C146.512 52.4314 146.629 52.9131 146.629 53.4727C146.629 54.0394 146.512 54.5282 146.278 54.9391C146.044 55.3499 145.726 55.6651 145.322 55.8847C144.918 56.1043 144.465 56.2141 143.962 56.2141ZM143.951 55.4597C144.263 55.4597 144.557 55.3924 144.833 55.2578C145.109 55.1161 145.332 54.9001 145.502 54.6097C145.68 54.3121 145.768 53.9367 145.768 53.4833C145.768 53.0229 145.683 52.6475 145.513 52.357C145.343 52.0666 145.12 51.8541 144.844 51.7195C144.574 51.5778 144.284 51.507 143.972 51.507C143.661 51.507 143.37 51.5778 143.101 51.7195C142.832 51.8541 142.612 52.0701 142.442 52.3676C142.279 52.6581 142.198 53.03 142.198 53.4833C142.198 53.9438 142.279 54.3192 142.442 54.6097C142.605 54.9001 142.818 55.1161 143.08 55.2578C143.349 55.3924 143.639 55.4597 143.951 55.4597Z" fill="#021233"></path><path d="M139.086 50.8268H139.873V56.1396H139.086V50.8268ZM139.49 49.7642C139.327 49.7642 139.193 49.7111 139.086 49.6049C138.98 49.4986 138.927 49.3676 138.927 49.2117C138.927 49.0488 138.98 48.9142 139.086 48.8079C139.193 48.7017 139.327 48.6486 139.49 48.6486C139.639 48.6486 139.766 48.7017 139.873 48.8079C139.986 48.9142 140.043 49.0488 140.043 49.2117C140.043 49.3676 139.986 49.4986 139.873 49.6049C139.766 49.7111 139.639 49.7642 139.49 49.7642Z" fill="#021233"></path><path d="M135.532 50.8267V49.3391H136.328V50.8267H137.742V51.5705H136.328V54.4288C136.328 54.7546 136.396 54.9919 136.53 55.1407C136.672 55.2895 136.849 55.378 137.062 55.4063C137.281 55.4347 137.508 55.4347 137.742 55.4063V56.097C137.465 56.1608 137.193 56.1785 136.924 56.1501C136.661 56.1218 136.424 56.0439 136.212 55.9164C136.006 55.7818 135.84 55.5941 135.712 55.3532C135.592 55.1124 135.532 54.8042 135.532 54.4288V51.5705H134.735V50.8267H135.532Z" fill="#021233"></path><path d="M132.904 56.1398L132.84 55.1834C132.691 55.5093 132.472 55.7643 132.181 55.9485C131.891 56.1256 131.522 56.2141 131.076 56.2141C130.693 56.2141 130.368 56.1539 130.098 56.0335C129.829 55.9131 129.62 55.7431 129.472 55.5235C129.33 55.2968 129.259 55.0311 129.259 54.7265C129.259 54.2803 129.426 53.9154 129.758 53.6321C130.091 53.3417 130.573 53.1646 131.204 53.1008L132.84 52.9202V52.4952C132.84 52.1976 132.73 51.9603 132.51 51.7832C132.291 51.5991 131.993 51.507 131.618 51.507C131.25 51.507 130.941 51.592 130.693 51.762C130.453 51.932 130.286 52.1764 130.194 52.4952L129.472 52.2401C129.613 51.7726 129.872 51.4078 130.247 51.1457C130.63 50.8836 131.094 50.7525 131.639 50.7525C132.27 50.7525 132.758 50.9155 133.106 51.2413C133.46 51.5601 133.637 51.9957 133.637 52.5483V56.1398H132.904ZM132.84 53.6002L131.193 53.7915C130.839 53.834 130.57 53.9332 130.385 54.089C130.201 54.2378 130.109 54.4361 130.109 54.684C130.109 54.932 130.198 55.1303 130.375 55.2791C130.559 55.4278 130.821 55.5022 131.161 55.5022C131.551 55.5022 131.869 55.4243 132.117 55.2685C132.365 55.1126 132.546 54.9036 132.659 54.6415C132.78 54.3724 132.84 54.0819 132.84 53.7702V53.6002Z" fill="#021233"></path><path d="M126.998 50.8268H127.784V56.1396H126.998V50.8268ZM127.401 49.7642C127.238 49.7642 127.104 49.7111 126.998 49.6049C126.891 49.4986 126.838 49.3676 126.838 49.2117C126.838 49.0488 126.891 48.9142 126.998 48.8079C127.104 48.7017 127.238 48.6486 127.401 48.6486C127.55 48.6486 127.678 48.7017 127.784 48.8079C127.897 48.9142 127.954 49.0488 127.954 49.2117C127.954 49.3676 127.897 49.4986 127.784 49.6049C127.678 49.7111 127.55 49.7642 127.401 49.7642Z" fill="#021233"></path><path d="M123.197 56.2141C122.68 56.2141 122.227 56.1008 121.837 55.8741C121.448 55.6474 121.143 55.3322 120.924 54.9284C120.711 54.5176 120.605 54.043 120.605 53.5046C120.605 52.9591 120.711 52.481 120.924 52.0701C121.143 51.6522 121.448 51.3299 121.837 51.1032C122.227 50.8694 122.68 50.7525 123.197 50.7525C123.743 50.7525 124.221 50.8801 124.632 51.1351C125.043 51.383 125.34 51.7301 125.524 52.1764L124.791 52.4314C124.685 52.148 124.49 51.9249 124.207 51.762C123.931 51.592 123.608 51.507 123.24 51.507C122.879 51.507 122.563 51.5884 122.294 51.7514C122.032 51.9143 121.827 52.1445 121.678 52.442C121.536 52.7395 121.465 53.0902 121.465 53.494C121.465 54.089 121.625 54.5672 121.944 54.9284C122.262 55.2826 122.687 55.4597 123.219 55.4597C123.58 55.4597 123.902 55.3782 124.186 55.2153C124.469 55.0524 124.678 54.8328 124.812 54.5565L125.535 54.8115C125.344 55.2507 125.043 55.5943 124.632 55.8422C124.221 56.0902 123.743 56.2141 123.197 56.2141Z" fill="#021233"></path><path d="M116.962 56.2141C116.459 56.2141 116.009 56.1043 115.612 55.8847C115.216 55.6651 114.904 55.3535 114.677 54.9497C114.45 54.5388 114.337 54.0536 114.337 53.494C114.337 52.9273 114.45 52.4385 114.677 52.0276C114.911 51.6168 115.226 51.3015 115.623 51.0819C116.027 50.8623 116.48 50.7525 116.983 50.7525C117.486 50.7525 117.936 50.8623 118.332 51.0819C118.736 51.3015 119.051 51.6168 119.278 52.0276C119.512 52.4314 119.629 52.9131 119.629 53.4727C119.629 54.0394 119.512 54.5282 119.278 54.9391C119.044 55.3499 118.726 55.6651 118.322 55.8847C117.918 56.1043 117.465 56.2141 116.962 56.2141ZM116.951 55.4597C117.263 55.4597 117.557 55.3924 117.833 55.2578C118.109 55.1161 118.332 54.9001 118.502 54.6097C118.68 54.3121 118.768 53.9367 118.768 53.4833C118.768 53.0229 118.683 52.6475 118.513 52.357C118.343 52.0666 118.12 51.8541 117.844 51.7195C117.574 51.5778 117.284 51.507 116.972 51.507C116.661 51.507 116.37 51.5778 116.101 51.7195C115.832 51.8541 115.612 52.0701 115.442 52.3676C115.279 52.6581 115.198 53.03 115.198 53.4833C115.198 53.9438 115.279 54.3192 115.442 54.6097C115.605 54.9001 115.818 55.1161 116.08 55.2578C116.349 55.3924 116.639 55.4597 116.951 55.4597Z" fill="#021233"></path><path d="M110.059 54.514C110.101 54.7265 110.179 54.9036 110.293 55.0453C110.406 55.1799 110.551 55.2826 110.728 55.3535C110.913 55.4243 111.125 55.4597 111.366 55.4597C111.741 55.4597 112.025 55.3889 112.216 55.2472C112.414 55.0984 112.514 54.9143 112.514 54.6947C112.514 54.5105 112.453 54.3617 112.333 54.2484C112.22 54.135 112.067 54.043 111.876 53.9721C111.685 53.8942 111.472 53.8269 111.238 53.7702C111.054 53.7277 110.856 53.6781 110.643 53.6215C110.431 53.5577 110.229 53.4727 110.038 53.3665C109.846 53.2602 109.691 53.1221 109.57 52.9521C109.45 52.782 109.39 52.5589 109.39 52.2826C109.39 51.978 109.471 51.7124 109.634 51.4857C109.804 51.2519 110.034 51.0713 110.325 50.9438C110.622 50.8163 110.962 50.7525 111.345 50.7525C111.784 50.7525 112.173 50.8482 112.514 51.0394C112.861 51.2307 113.101 51.5282 113.236 51.932L112.492 52.187C112.443 52.0028 112.351 51.8612 112.216 51.762C112.088 51.6628 111.943 51.5955 111.78 51.5601C111.625 51.5247 111.469 51.507 111.313 51.507C110.994 51.507 110.735 51.5707 110.537 51.6982C110.346 51.8187 110.25 52.0028 110.25 52.2508C110.25 52.3854 110.282 52.4987 110.346 52.5908C110.41 52.6758 110.498 52.7466 110.612 52.8033C110.725 52.86 110.859 52.9096 111.015 52.9521C111.171 52.9875 111.341 53.03 111.525 53.0796C111.731 53.1291 111.94 53.1929 112.152 53.2708C112.365 53.3417 112.563 53.4373 112.747 53.5577C112.931 53.6711 113.08 53.8198 113.194 54.004C113.314 54.1811 113.374 54.4042 113.374 54.6734C113.374 54.9851 113.289 55.2578 113.119 55.4916C112.949 55.7183 112.712 55.8954 112.407 56.0229C112.11 56.1504 111.763 56.2141 111.366 56.2141C110.821 56.2141 110.367 56.0937 110.006 55.8529C109.652 55.6049 109.414 55.2437 109.294 54.769L110.059 54.514Z" fill="#021233"></path><path d="M105.016 54.514C105.059 54.7265 105.137 54.9036 105.25 55.0453C105.363 55.1799 105.509 55.2826 105.686 55.3535C105.87 55.4243 106.082 55.4597 106.323 55.4597C106.699 55.4597 106.982 55.3889 107.173 55.2472C107.372 55.0984 107.471 54.9143 107.471 54.6947C107.471 54.5105 107.411 54.3617 107.29 54.2484C107.177 54.135 107.025 54.043 106.833 53.9721C106.642 53.8942 106.429 53.8269 106.196 53.7702C106.012 53.7277 105.813 53.6781 105.601 53.6215C105.388 53.5577 105.186 53.4727 104.995 53.3665C104.804 53.2602 104.648 53.1221 104.527 52.9521C104.407 52.782 104.347 52.5589 104.347 52.2826C104.347 51.978 104.428 51.7124 104.591 51.4857C104.761 51.2519 104.991 51.0713 105.282 50.9438C105.579 50.8163 105.919 50.7525 106.302 50.7525C106.741 50.7525 107.131 50.8482 107.471 51.0394C107.818 51.2307 108.059 51.5282 108.193 51.932L107.45 52.187C107.4 52.0028 107.308 51.8612 107.173 51.762C107.046 51.6628 106.901 51.5955 106.738 51.5601C106.582 51.5247 106.426 51.507 106.27 51.507C105.951 51.507 105.693 51.5707 105.494 51.6982C105.303 51.8187 105.208 52.0028 105.208 52.2508C105.208 52.3854 105.239 52.4987 105.303 52.5908C105.367 52.6758 105.455 52.7466 105.569 52.8033C105.682 52.86 105.817 52.9096 105.973 52.9521C106.128 52.9875 106.298 53.03 106.483 53.0796C106.688 53.1291 106.897 53.1929 107.11 53.2708C107.322 53.3417 107.52 53.4373 107.705 53.5577C107.889 53.6711 108.037 53.8198 108.151 54.004C108.271 54.1811 108.331 54.4042 108.331 54.6734C108.331 54.9851 108.246 55.2578 108.076 55.4916C107.906 55.7183 107.669 55.8954 107.365 56.0229C107.067 56.1504 106.72 56.2141 106.323 56.2141C105.778 56.2141 105.324 56.0937 104.963 55.8529C104.609 55.6049 104.372 55.2437 104.251 54.769L105.016 54.514Z" fill="#021233"></path><path d="M100.385 49.4455H100.034L97.5794 56.1397H96.7188L99.4389 48.7017H100.969L103.679 56.1397H102.818L100.385 49.4455ZM98.047 53.4408H102.382V54.1846H98.047V53.4408Z" fill="#021233"></path><path d="M92.0454 48.4891H92.8423V56.1396H92.0454V48.4891Z" fill="#021233"></path><path d="M89.7576 56.1398L89.6939 55.1834C89.5451 55.5093 89.3255 55.7643 89.0351 55.9485C88.7447 56.1256 88.3763 56.2141 87.93 56.2141C87.5475 56.2141 87.2216 56.1539 86.9525 56.0335C86.6833 55.9131 86.4743 55.7431 86.3255 55.5235C86.1839 55.2968 86.113 55.0311 86.113 54.7265C86.113 54.2803 86.2795 53.9154 86.6124 53.6321C86.9454 53.3417 87.4271 53.1646 88.0575 53.1008L89.6939 52.9202V52.4952C89.6939 52.1976 89.5841 51.9603 89.3645 51.7832C89.1449 51.5991 88.8474 51.507 88.4719 51.507C88.1036 51.507 87.7954 51.592 87.5475 51.762C87.3067 51.932 87.1402 52.1764 87.0481 52.4952L86.3255 52.2401C86.4672 51.7726 86.7258 51.4078 87.1012 51.1457C87.4837 50.8836 87.9477 50.7525 88.4932 50.7525C89.1236 50.7525 89.6124 50.9155 89.9595 51.2413C90.3137 51.5601 90.4908 51.9957 90.4908 52.5483V56.1398H89.7576ZM89.6939 53.6002L88.0469 53.7915C87.6927 53.834 87.4235 53.9332 87.2394 54.089C87.0552 54.2378 86.9631 54.4361 86.9631 54.684C86.9631 54.932 87.0516 55.1303 87.2287 55.2791C87.4129 55.4278 87.675 55.5022 88.015 55.5022C88.4046 55.5022 88.7234 55.4243 88.9713 55.2685C89.2193 55.1126 89.3999 54.9036 89.5132 54.6415C89.6337 54.3724 89.6939 54.0819 89.6939 53.7702V53.6002Z" fill="#021233"></path><path d="M80.4443 50.8269H81.1775L81.22 51.5813C81.39 51.3192 81.6132 51.1174 81.8894 50.9757C82.1657 50.8269 82.488 50.7525 82.8564 50.7525C83.2601 50.7525 83.6143 50.8411 83.9189 51.0182C84.2235 51.1882 84.4608 51.4468 84.6308 51.7939C84.8009 52.1339 84.8859 52.5624 84.8859 53.0796V56.1398H84.0889V53.1752C84.0889 52.6227 83.9685 52.2047 83.7277 51.9214C83.4939 51.6309 83.1539 51.4857 82.7076 51.4857C82.2472 51.4857 81.8859 51.638 81.6238 51.9426C81.3688 52.2472 81.2413 52.697 81.2413 53.2921V56.1398H80.4443V50.8269Z" fill="#021233"></path><path d="M76.4722 56.2141C75.9692 56.2141 75.5194 56.1043 75.1227 55.8847C74.726 55.6651 74.4144 55.3535 74.1877 54.9497C73.961 54.5388 73.8477 54.0536 73.8477 53.494C73.8477 52.9273 73.961 52.4385 74.1877 52.0276C74.4214 51.6168 74.7367 51.3015 75.1334 51.0819C75.5371 50.8623 75.9905 50.7525 76.4934 50.7525C76.9964 50.7525 77.4462 50.8623 77.8429 51.0819C78.2467 51.3015 78.5619 51.6168 78.7886 52.0276C79.0224 52.4314 79.1392 52.9131 79.1392 53.4727C79.1392 54.0394 79.0224 54.5282 78.7886 54.9391C78.5548 55.3499 78.2361 55.6651 77.8323 55.8847C77.4285 56.1043 76.9751 56.2141 76.4722 56.2141ZM76.4616 55.4597C76.7733 55.4597 77.0672 55.3924 77.3435 55.2578C77.6198 55.1161 77.8429 54.9001 78.0129 54.6097C78.19 54.3121 78.2786 53.9367 78.2786 53.4833C78.2786 53.0229 78.1936 52.6475 78.0235 52.357C77.8535 52.0666 77.6304 51.8541 77.3541 51.7195C77.0849 51.5778 76.7945 51.507 76.4828 51.507C76.1711 51.507 75.8807 51.5778 75.6115 51.7195C75.3423 51.8541 75.1227 52.0701 74.9527 52.3676C74.7898 52.6581 74.7083 53.03 74.7083 53.4833C74.7083 53.9438 74.7898 54.3192 74.9527 54.6097C75.1157 54.9001 75.3282 55.1161 75.5903 55.2578C75.8595 55.3924 76.1499 55.4597 76.4616 55.4597Z" fill="#021233"></path><path d="M71.5969 50.8268H72.3832V56.1396H71.5969V50.8268ZM72.0007 49.7642C71.8377 49.7642 71.7031 49.7111 71.5969 49.6049C71.4906 49.4986 71.4375 49.3676 71.4375 49.2117C71.4375 49.0488 71.4906 48.9142 71.5969 48.8079C71.7031 48.7017 71.8377 48.6486 72.0007 48.6486C72.1494 48.6486 72.2769 48.7017 72.3832 48.8079C72.4965 48.9142 72.5532 49.0488 72.5532 49.2117C72.5532 49.3676 72.4965 49.4986 72.3832 49.6049C72.2769 49.7111 72.1494 49.7642 72.0007 49.7642Z" fill="#021233"></path><path d="M68.042 50.8267V49.3391H68.839V50.8267H70.2522V51.5705H68.839V54.4288C68.839 54.7546 68.9063 54.9919 69.0409 55.1407C69.1825 55.2895 69.3596 55.378 69.5721 55.4063C69.7917 55.4347 70.0184 55.4347 70.2522 55.4063V56.097C69.9759 56.1608 69.7032 56.1785 69.434 56.1501C69.1719 56.1218 68.9346 56.0439 68.7221 55.9164C68.5167 55.7818 68.3502 55.5941 68.2227 55.3532C68.1023 55.1124 68.042 54.8042 68.042 54.4288V51.5705H67.2451V50.8267H68.042Z" fill="#021233"></path><path d="M65.4139 56.1398L65.3501 55.1834C65.2014 55.5093 64.9818 55.7643 64.6913 55.9485C64.4009 56.1256 64.0325 56.2141 63.5863 56.2141C63.2037 56.2141 62.8779 56.1539 62.6087 56.0335C62.3395 55.9131 62.1306 55.7431 61.9818 55.5235C61.8401 55.2968 61.7693 55.0311 61.7693 54.7265C61.7693 54.2803 61.9358 53.9154 62.2687 53.6321C62.6016 53.3417 63.0833 53.1646 63.7138 53.1008L65.3501 52.9202V52.4952C65.3501 52.1976 65.2403 51.9603 65.0207 51.7832C64.8011 51.5991 64.5036 51.507 64.1282 51.507C63.7598 51.507 63.4517 51.592 63.2037 51.762C62.9629 51.932 62.7964 52.1764 62.7043 52.4952L61.9818 52.2401C62.1235 51.7726 62.382 51.4078 62.7575 51.1457C63.14 50.8836 63.604 50.7525 64.1494 50.7525C64.7799 50.7525 65.2687 50.9155 65.6158 51.2413C65.97 51.5601 66.1471 51.9957 66.1471 52.5483V56.1398H65.4139ZM65.3501 53.6002L63.7032 53.7915C63.349 53.834 63.0798 53.9332 62.8956 54.089C62.7114 54.2378 62.6193 54.4361 62.6193 54.684C62.6193 54.932 62.7079 55.1303 62.885 55.2791C63.0692 55.4278 63.3313 55.5022 63.6713 55.5022C64.0609 55.5022 64.3797 55.4243 64.6276 55.2685C64.8755 55.1126 65.0562 54.9036 65.1695 54.6415C65.2899 54.3724 65.3501 54.0819 65.3501 53.7702V53.6002Z" fill="#021233"></path><path d="M56.1011 50.8269H56.8342L56.8767 51.5813C57.0468 51.3192 57.2699 51.1174 57.5462 50.9757C57.8224 50.8269 58.1447 50.7525 58.5131 50.7525C58.9169 50.7525 59.2711 50.8411 59.5757 51.0182C59.8803 51.1882 60.1176 51.4468 60.2876 51.7939C60.4576 52.1339 60.5426 52.5624 60.5426 53.0796V56.1398H59.7457V53.1752C59.7457 52.6227 59.6253 52.2047 59.3844 51.9214C59.1506 51.6309 58.8106 51.4857 58.3643 51.4857C57.9039 51.4857 57.5426 51.638 57.2805 51.9426C57.0255 52.2472 56.898 52.697 56.898 53.2921V56.1398H56.1011V50.8269Z" fill="#021233"></path><path d="M52.2717 50.8267H53.0049L53.0474 51.6023C53.1891 51.4111 53.3591 51.2482 53.5574 51.1136C53.7629 50.979 53.986 50.8869 54.2269 50.8373C54.4748 50.7806 54.7369 50.7771 55.0131 50.8267V51.6236C54.7156 51.5669 54.4464 51.5669 54.2056 51.6236C53.9718 51.6803 53.7699 51.7865 53.5999 51.9424C53.4299 52.0982 53.2989 52.2966 53.2068 52.5374C53.1147 52.7712 53.0687 53.0439 53.0687 53.3556V56.1395H52.2717V50.8267Z" fill="#021233"></path><path d="M48.5056 56.2141C48.0097 56.2141 47.567 56.0937 47.1774 55.8529C46.7949 55.612 46.4938 55.2826 46.2742 54.8647C46.0546 54.4467 45.9448 53.9686 45.9448 53.4302C45.9448 52.9131 46.0546 52.4526 46.2742 52.0489C46.4938 51.6451 46.7949 51.3299 47.1774 51.1032C47.5599 50.8694 47.9956 50.7525 48.4844 50.7525C48.9661 50.7525 49.3946 50.8588 49.7701 51.0713C50.1526 51.2838 50.4501 51.5778 50.6626 51.9532C50.8751 52.3287 50.9743 52.7573 50.9601 53.2389C50.9601 53.3169 50.9566 53.3983 50.9495 53.4833C50.9424 53.5683 50.9353 53.6604 50.9283 53.7596H46.8161C46.8303 54.0925 46.9118 54.3865 47.0605 54.6415C47.2093 54.8966 47.4041 55.0984 47.6449 55.2472C47.8929 55.3889 48.1727 55.4597 48.4844 55.4597C48.8952 55.4597 49.2423 55.3818 49.5257 55.2259C49.8161 55.0701 50.0251 54.847 50.1526 54.5565L50.8433 54.8328C50.6307 55.2791 50.3226 55.6226 49.9188 55.8635C49.5151 56.0973 49.044 56.2141 48.5056 56.2141ZM50.0888 53.0689C50.0959 52.7643 50.0286 52.4952 49.8869 52.2614C49.7524 52.0276 49.5611 51.8434 49.3132 51.7089C49.0652 51.5743 48.7783 51.507 48.4525 51.507C48.1691 51.507 47.9106 51.5743 47.6768 51.7089C47.443 51.8434 47.2482 52.0312 47.0924 52.272C46.9436 52.5058 46.8551 52.7714 46.8268 53.0689H50.0888Z" fill="#021233"></path><path d="M42.8785 50.8267V49.3391H43.6754V50.8267H45.0886V51.5705H43.6754V54.4288C43.6754 54.7546 43.7427 54.9919 43.8773 55.1407C44.019 55.2895 44.1961 55.378 44.4086 55.4063C44.6282 55.4347 44.8548 55.4347 45.0886 55.4063V56.097C44.8123 56.1608 44.5396 56.1785 44.2704 56.1501C44.0083 56.1218 43.771 56.0439 43.5585 55.9164C43.3531 55.7818 43.1866 55.5941 43.0591 55.3532C42.9387 55.1124 42.8785 54.8042 42.8785 54.4288V51.5705H42.0815V50.8267H42.8785Z" fill="#021233"></path><path d="M36.5513 50.8269H37.2844L37.3269 51.5813C37.497 51.3192 37.7201 51.1174 37.9964 50.9757C38.2726 50.8269 38.5949 50.7525 38.9633 50.7525C39.3671 50.7525 39.7213 50.8411 40.0259 51.0182C40.3305 51.1882 40.5678 51.4468 40.7378 51.7939C40.9078 52.1339 40.9928 52.5624 40.9928 53.0796V56.1398H40.1959V53.1752C40.1959 52.6227 40.0754 52.2047 39.8346 51.9214C39.6008 51.6309 39.2608 51.4857 38.8145 51.4857C38.3541 51.4857 37.9928 51.638 37.7307 51.9426C37.4757 52.2472 37.3482 52.697 37.3482 53.2921V56.1398H36.5513V50.8269Z" fill="#021233"></path><path d="M33.98 48.7017H34.83V56.1397H33.98V48.7017Z" fill="#021233"></path><path d="M28.6536 50.9012C28.6536 50.455 28.5226 50.1008 28.2605 49.8387C27.9984 49.5766 27.5698 49.4455 26.9748 49.4455H25.2109V52.357H26.9854C27.375 52.357 27.6902 52.2967 27.9311 52.1763C28.179 52.0559 28.3596 51.8859 28.473 51.6663C28.5934 51.4467 28.6536 51.1917 28.6536 50.9012ZM26.9748 48.7017C27.5556 48.7017 28.0302 48.8009 28.3986 48.9992C28.774 49.1976 29.0538 49.4632 29.238 49.7962C29.4222 50.122 29.5143 50.4904 29.5143 50.9012C29.5143 51.1917 29.4647 51.4679 29.3655 51.73C29.2734 51.9921 29.1247 52.2259 28.9193 52.4313C28.7138 52.6368 28.4517 52.7997 28.133 52.9201C27.8142 53.0405 27.4317 53.1008 26.9854 53.1008H25.2109V56.1397H24.3608V48.7017H26.9748ZM27.591 52.782L29.6524 56.1397H28.6855L26.6772 52.782H27.591Z" fill="#021233"></path><path d="M19.0744 48.7017C19.8961 48.7017 20.5974 48.854 21.1783 49.1586C21.7662 49.4562 22.2161 49.8847 22.5277 50.4443C22.8465 51.004 23.0059 51.6698 23.0059 52.442C23.0059 53.207 22.8465 53.8658 22.5277 54.4183C22.2161 54.9709 21.7662 55.3959 21.1783 55.6934C20.5974 55.9909 19.8961 56.1397 19.0744 56.1397H16.6199V48.7017H19.0744ZM19.0744 55.3959C20.0874 55.3959 20.8524 55.1373 21.3695 54.6202C21.8867 54.1031 22.1452 53.377 22.1452 52.442C22.1452 51.4998 21.8867 50.7666 21.3695 50.2425C20.8524 49.7112 20.0874 49.4455 19.0744 49.4455H17.4699V55.3959H19.0744Z" fill="#021233"></path><path d="M8.28658 56.1397H7.43652V48.7017H8.37158L11.1343 54.9709L13.8863 48.7017H14.8107V56.1397H13.9607V50.3806L11.4318 56.1397H10.8261L8.28658 50.3806V56.1397Z" fill="#021233"></path><path d="M5.83861 49.4454H1.81148V51.9849H4.83979V52.7287H1.81148V55.3957H5.83861V56.1395H0.961426V48.7016H5.83861V49.4454Z" fill="#021233"></path><path d="M155.568 12.0005H154.819V8.11908H155.673L156.91 11.0246L158.146 8.11908H159V12.0005H158.251V9.49422L157.203 12.0005H156.616L155.568 9.49422V12.0005Z" fill="#021233"></path><path d="M151.111 8.11895H154.26V8.74553H153.062V12.0004H152.314V8.74553H151.111V8.11895Z" fill="#021233"></path><path d="M26.9445 23.9433L38.8938 12.0225C42.557 10.883 46.228 12.5552 48.6796 15.3004C49.6211 14.9163 50.0996 14.0712 50.9486 13.5206C55.7129 10.4194 63.5461 11.0878 66.5688 16.2531C66.7695 16.5937 67.8474 19.1596 67.8474 19.3338V41.2291H62.1879V22.4068C62.1879 22.1891 61.5962 20.6654 61.4238 20.3504C59.888 17.5079 55.9752 16.545 53.3127 18.44C52.4355 19.0649 50.3517 21.6514 50.3517 22.6629V41.2291H44.4787L44.4453 40.6145C44.4453 40.6145 44.453 38.7579 44.4247 37.7822C44.278 32.9422 45.0035 26.7321 44.4427 22.143C43.8356 17.1647 36.5296 15.9022 33.7771 19.7333C33.3886 20.2736 32.6014 22.3479 32.6014 22.9164V41.2265H26.9419V23.9408L26.9445 23.9433Z" fill="#021233"></path><path d="M94.3427 0.256001V41.2297H88.6831V38.4153L85.7711 40.5101C81.0042 42.9352 74.115 40.8199 72.3554 35.5907C71.1077 31.8851 71.1541 22.0719 72.1882 18.2793C73.7549 12.5302 79.9778 10.1588 85.2566 12.5046L88.6857 14.8529V0.256001H94.3452H94.3427ZM87.3223 19.278C87.083 18.9758 85.5138 17.9336 85.0868 17.7927C82.9259 17.0783 80.0678 17.4163 78.6529 19.3369C76.8316 21.8133 76.8522 30.9325 78.532 33.5343C80.4768 36.5459 86.0412 36.4204 87.667 33.1758C88.9918 30.5253 89.1693 21.6084 87.3197 19.278H87.3223Z" fill="#021233"></path><path d="M152.232 41.2289H146.315V39.1803C143.184 42.6118 135.729 42.2072 132.3 39.4312C126.031 34.3505 129.455 23.8151 137.697 23.8151H146.315V19.8458C146.315 19.7715 145.68 18.6934 145.551 18.5577C143.604 16.5141 136.823 16.6678 135.13 19.3977L130.736 16.1351C130.484 15.7433 130.947 15.3541 131.16 15.057C135.4 9.15936 152.234 10.5755 152.234 19.3311V41.2264L152.232 41.2289ZM146.315 28.9368H138.212C137.219 28.9368 135.058 30.0201 134.793 31.1673C134.145 34.0022 136.059 35.6258 138.716 35.8614C140.069 35.9817 143.035 35.9459 144.262 35.4721C145.188 35.1136 146.315 33.5873 146.315 32.6501V28.9368Z" fill="#021233"></path><path d="M6.49322 28.9371C6.42891 28.9371 6.27198 28.8859 6.08676 29.0395C5.30472 31.5159 7.24439 34.3046 9.53393 35.3853C13.0788 37.0575 16.2559 35.5082 19.0625 33.3085L23.0833 37.0012C19.5873 40.4276 15.8546 41.9437 10.8691 41.4827C-0.2519 40.4532 -2.14527 25.4005 2.06336 17.3569C6.32601 9.21081 18.9287 9.98163 22.574 18.3044C24.0892 21.7641 23.3766 24.7911 23.7522 28.4121L23.4718 28.9345C17.8123 28.9217 12.1527 28.9524 6.49322 28.9345V28.9371ZM17.9409 24.0715C18.4888 15.7948 6.86623 14.4401 5.90926 22.7321C5.87325 23.0522 5.7652 24.0715 6.23597 24.0715H17.9409Z" fill="#021233"></path><path d="M98.2085 23.1736L109.512 12.1466C111.758 10.605 115.434 12.3489 117.469 13.6012C117.793 14.1569 115.437 16.436 114.935 17.0353C114.477 17.5807 113.867 18.2798 113.636 18.9457C111.225 17.6729 109.728 16.751 107.032 18.1288C105.947 18.6845 104.125 20.6614 104.125 21.8932V41.2277H98.2085V23.1736Z" fill="#021233"></path><path d="M125.728 11.7179V41.2292H119.811V11.7307L125.728 11.7179Z" fill="#021233"></path><path d="M125.728 6.14605H119.811V0.384128L120.197 0H125.342L125.728 0.384128V6.14605Z" fill="#021233"></path></svg> 